<?xml version="1.0" encoding="UTF-8"?>
<svg width="132px" height="36px" viewBox="0 0 132 36" version="1.1" xmlns="http://www.w3.org/2000/svg" xmlns:xlink="http://www.w3.org/1999/xlink">
    <!-- Generator: Sketch 53.2 (72643) - https://sketchapp.com -->
    <title>logo</title>
    <desc>Created with Sketch.</desc>
    <g id="logo" stroke="none" stroke-width="1" fill="none" fill-rule="evenodd">
        <g id="Unknown" transform="translate(2.000000, 2.000000)" fill-rule="nonzero">
            <polygon id="Path" fill="#4285F4" points="114 9.32075472 121.730061 0 128 0 117.177914 13"></polygon>
            <polygon id="Path" fill="#34A853" points="103.2 0 97 0 109.4 16 97 32 103.2 32 112.457534 19.9344262 121.8 32 128 32"></polygon>
            <path d="M83.5,0 C74.9453552,0 68,7.1890411 68,16.0438356 C68,24.8986301 74.9453552,32 83.5,32 C92.0546448,32 99,24.8109589 99,16.0438356 C99,7.27671233 92.0546448,0.0876712329 83.5,0 L83.5,0 Z M83.5,27.090411 C77.5710383,27.090411 72.8278689,22.0931507 72.8278689,16.0438356 C72.8278689,9.99452055 77.5710383,4.99726027 83.5,4.99726027 C89.4289617,4.99726027 94.1721311,9.99452055 94.1721311,16.0438356 C94.1721311,22.1808219 89.4289617,27.090411 83.5,27.090411 L83.5,27.090411 Z" id="Shape" fill="#FBBC05"></path>
            <path d="M48.457151,0 C39.8792815,0 33,7.1890411 33,16.0438356 C33,24.8986301 39.9642109,32 48.5420804,32 C57.1199499,32 64.0841608,24.8109589 63.9992314,15.9561644 C63.9992314,15.9561644 63.9992314,15.9561644 63.9992314,15.9561644 C63.914302,7.1890411 57.0350205,0 48.457151,0 Z M48.457151,27.090411 C42.5120929,27.090411 37.7560465,22.0931507 37.7560465,16.0438356 C37.7560465,9.99452055 42.5120929,4.99726027 48.457151,4.99726027 C54.4022091,4.99726027 59.1582555,9.99452055 59.1582555,16.0438356 C59.1582555,22.1808219 54.4022091,27.090411 48.457151,27.090411 C48.457151,27.090411 48.457151,27.090411 48.457151,27.090411 L48.457151,27.090411 Z" id="Shape" fill="#EA4335"></path>
            <path d="M23.8712668,14.2897105 C24.9016812,12.7117057 25.5027563,10.8707 25.5027563,9.02969438 C25.5027563,3.6820113 21.6387023,0.701335486 17.0018375,0.0876669357 C16.4866303,0 15.9714231,0 15.4562159,0 L0,0 L0,31.9984315 L21.6387023,31.9984315 C26.6190385,32.0860985 30.9982997,28.4917541 30.9982997,22.9687372 C31.0841676,18.0593888 27.9070565,15.2540468 23.8712668,14.2897105 Z M4.03578971,4.12034598 L15.4562159,4.12034598 C18.2898555,4.12034598 21.3810987,5.52301695 21.3810987,9.02969438 C21.3810987,12.0980371 19.4920056,13.4130412 16.9159697,13.8513758 L16.057291,13.9390428 L4.03578971,13.9390428 L4.03578971,4.12034598 Z M22.497381,27.7904186 L21.6387023,27.8780856 L4.03578971,27.8780856 L4.03578971,18.0593888 L21.0376272,18.0593888 C23.8712668,18.0593888 26.96251,19.4620597 26.96251,22.9687372 C26.96251,26.0370799 25.0734169,27.352084 22.497381,27.7904186 L22.497381,27.7904186 Z" id="Shape" fill="#4285F4"></path>
        </g>
    </g>
</svg>